# xmcd
#
# Track frame offsets:
#	150
#	12662
#	24362
#	38587
#	53125
#	66675
#	80800
#	92813
#	105913
#	118126
#	131048
#	141536
#	154648
#	172198
#	185910
#	201123
#	209961
#	224961
#	239824
#	253086
#
# Disc length: 3574 seconds
#
# Revision: 1
# Processed by: cddbd v1.5.2PL0 Copyright (c) Steve Scherf et al.
# Submitted via: audiograbber 1.83.01
#
DISCID=4c0df414
DTITLE=Various Artist - Kiwi Country Boys
DYEAR=2006
DGENRE=Country
TTITLE0=Brendan Dugan - My Elusive Dreams
TTITLE1=Noel Parlane - Stolen Moments
TTITLE2=Jeff Rea - Song and Dance Man
TTITLE3=Brian McCauley - Christchurch City
TTITLE4=Roger Tibbs - Where Did All The Yodellers Go
TTITLE5=Max McCauley - Little Yellow Aeroplane
TTITLE6=Cole Wilson and The Tumbleweeds - Maple On The Hill
TTITLE7=Max Whitehouse - Lonesome Angel
TTITLE8=Dusty Spittle - Cardigan Bay
TTITLE9=Trevor Dawe - Last Date
TTITLE10=Brendan Dugan - McKenzie and His Dog
TTITLE11=Noel Parlane - Marriage Vows
TTITLE12=Peter Scott - Memories Of Flight TE-901
TTITLE13=Garner Wayne - Love In A Fowlhouse
TTITLE14=Noel Parlane - One By One
TTITLE15=Max McCauley - She Taught Me To Yodel
TTITLE16=Roger Skinner - One More Time
TTITLE17=Danny McGirr - Under The Sun
TTITLE18=Brendan Beleski - Country Boy
TTITLE19=Tex Morton - The Black Sheep
EXTD=
EXTT0=
EXTT1=
EXTT2=
EXTT3=
EXTT4=
EXTT5=
EXTT6=
EXTT7=
EXTT8=
EXTT9=
EXTT10=
EXTT11=
EXTT12=
EXTT13=
EXTT14=
EXTT15=
EXTT16=
EXTT17=
EXTT18=
EXTT19=
PLAYORDER=
